<svg width="158" height="111" viewBox="0 0 158 111" fill="none" xmlns="http://www.w3.org/2000/svg">
<path fill-rule="evenodd" clip-rule="evenodd" d="M151.55 53.5576C155.003 59.194 157 65.8075 157 72.866C157 93.2901 140.293 110 119.873 110H38.1266C17.7065 110 1 93.2901 1 72.866C1 55.7775 12.6983 41.2904 28.4772 37.0154C33.4999 24.1874 45.9814 15.1055 60.587 15.1055C64.9652 15.1055 69.1526 15.9235 73.0078 17.4121C81.1978 7.39373 93.6475 1 107.594 1C132.257 1 152.249 20.9963 152.249 45.6637C152.249 48.3576 152.012 50.9966 151.552 53.5576H151.55Z" fill="#FEFEFE" stroke="#A2D9F7" stroke-opacity="0.5" stroke-width="2" stroke-miterlimit="22.9256"/>
</svg>
