<svg width="9" height="15" viewBox="0 0 9 15" fill="none" xmlns="http://www.w3.org/2000/svg">
<path fill-rule="evenodd" clip-rule="evenodd" d="M7.90136 12.2975C8.00147 12.3951 8.08124 12.5117 8.13603 12.6406C8.19081 12.7694 8.21951 12.9079 8.22046 13.048C8.22141 13.1881 8.19459 13.3269 8.14156 13.4565C8.08853 13.5861 8.01035 13.7038 7.91157 13.8028C7.81278 13.9018 7.69537 13.98 7.56615 14.033C7.43694 14.0861 7.29851 14.1128 7.1589 14.1117C7.0193 14.1105 6.88132 14.0816 6.75298 14.0264C6.62465 13.9713 6.50852 13.8911 6.41136 13.7905L0.519356 7.82461C0.32187 7.62631 0.210938 7.35745 0.210938 7.07712C0.210938 6.79679 0.32187 6.52794 0.519356 6.32964L6.41136 0.362724C6.60913 0.164823 6.87704 0.0537109 7.15636 0.0537109C7.43567 0.0537109 7.70359 0.164823 7.90136 0.362724C8.31336 0.775099 9.31336 1.44432 8.90136 1.8577L3.07236 7.08012L7.90136 12.2975Z" fill="white"/>
</svg>
