<svg width="109" height="86" viewBox="0 0 109 86" fill="none" xmlns="http://www.w3.org/2000/svg">
<g clip-path="url(#clip0_474_14186)">
<path fill-rule="evenodd" clip-rule="evenodd" d="M83.0244 0.198284C83.9485 -0.193403 85.0173 0.00556308 85.7386 0.703559L101.239 15.7036C101.971 16.412 102.2 17.4936 101.817 18.4378C101.435 19.3821 100.519 20.0001 99.5 20.0001H84C82.6193 20.0001 81.5 18.8808 81.5 17.5001V2.50006C81.5 1.49636 82.1003 0.589971 83.0244 0.198284ZM86.5 8.39839V15.0001H93.3217L86.5 8.39839Z" fill="#CBCBCB"/>
<path fill-rule="evenodd" clip-rule="evenodd" d="M90.5732 11.641L83.5171 5H8C6.34314 5 5 6.34315 5 8V69C5 70.6569 6.34315 72 8 72H94C95.6569 72 97 70.6569 97 69V17.6662L90.5732 11.641ZM102 15.5V69C102 73.4183 98.4183 77 94 77H8C3.58172 77 0 73.4183 0 69V8C0 3.58172 3.58172 0 8 0H85.5L94 8L102 15.5Z" fill="#CBCBCB"/>
<path fill-rule="evenodd" clip-rule="evenodd" d="M16.8399 43.2156C16.366 43.3061 15.7582 43.5975 15.4892 43.8632C15.0948 44.2526 15 44.6069 15 45.6919C15 46.9085 15.0653 47.0953 15.6796 47.6374C16.115 48.0213 17.0464 48.4224 18.2685 48.7522C19.3187 49.0354 20.3046 49.3698 20.4592 49.4951C20.6141 49.6205 20.7406 50.0051 20.7406 50.3496C20.7406 50.6944 20.6141 51.0554 20.4592 51.1521C20.3046 51.2488 19.0635 51.3297 17.7015 51.3319L15.2251 51.3359L15.1569 52.0259C15.0901 52.7048 15.1087 52.7186 16.2825 52.8577C16.9392 52.9355 18.0335 52.9996 18.7145 53C19.3955 53.0002 20.3174 52.9006 20.7631 52.7784C21.2089 52.6561 21.7555 52.3576 21.9779 52.1151C22.2066 51.8654 22.4209 51.2143 22.4714 50.6157C22.5231 50.0024 22.4369 49.3269 22.2665 49.0085C22.1046 48.7067 21.667 48.2565 21.294 48.0082C20.9209 47.7601 19.8588 47.3671 18.9336 47.1351C18.0083 46.903 17.1195 46.6116 16.9583 46.4871C16.7972 46.3628 16.6958 45.9525 16.7332 45.5752L16.801 44.8895L19.3899 44.7783L21.9788 44.6672V44.0003C21.9788 43.3679 21.9207 43.3259 20.8532 43.1863C20.2341 43.1051 19.2717 43.0418 18.7145 43.0451C18.1573 43.0485 17.3138 43.1251 16.8399 43.2156ZM27.3311 43.2018C26.9317 43.3032 26.3513 43.5504 26.0414 43.7509C25.7314 43.9514 25.2982 44.4398 25.079 44.8359C24.7658 45.4016 24.6803 46.0812 24.6803 48.0016C24.6803 50.0604 24.7527 50.5684 25.1384 51.217C25.3905 51.6405 25.9477 52.1906 26.3766 52.4396C27.008 52.8057 27.5501 52.892 29.2226 52.892C30.9578 52.892 31.3878 52.8186 31.9101 52.4336C32.252 52.1815 32.7392 51.7009 32.9927 51.3657C33.3758 50.8589 33.4661 50.3547 33.5278 48.3783C33.5942 46.2452 33.5483 45.8987 33.0807 45.0057C32.7941 44.4582 32.2372 43.8278 31.8432 43.6046C31.4121 43.3606 30.5154 43.1629 29.592 43.1083C28.7478 43.0585 27.7304 43.1005 27.3311 43.2018ZM35.3736 47.3447C35.3736 51.6614 35.3772 51.6931 35.9262 52.2351C36.4542 52.7566 36.6045 52.7808 39.3031 52.7808H42.1272V52.0028V51.2248H39.7578C37.4217 51.2248 37.3855 51.2168 37.1689 50.6546C37.0483 50.341 36.9494 48.4904 36.9494 46.5422V43H36.1615H35.3736V47.3447ZM67.4535 43.3341C66.9582 43.507 66.3286 43.9045 66.0541 44.217C65.7799 44.5296 65.4389 45.2089 65.2966 45.7266C65.146 46.2739 65.0836 47.4758 65.1471 48.5986C65.2228 49.9297 65.388 50.7513 65.6798 51.243C65.9123 51.6354 66.3864 52.1651 66.7329 52.42C67.2628 52.8102 67.6548 52.8784 69.1964 52.8493C70.2045 52.8302 71.4641 52.6946 71.9949 52.5476C72.526 52.4009 73.0676 52.1533 73.1986 51.9975C73.3398 51.8294 73.4102 50.868 73.3717 49.6356L73.3067 47.557H72.5188H71.7308L71.6637 49.2177C71.6239 50.2002 71.4861 50.9478 71.3261 51.0483C71.1773 51.1416 70.4157 51.2194 69.6336 51.2214C68.8517 51.2232 68.0264 51.1268 67.8 51.0072C67.5735 50.8876 67.2763 50.4725 67.1395 50.0849C67.0026 49.6972 66.8907 48.7416 66.8907 47.9613C66.8907 47.1809 67.035 46.2014 67.2113 45.7846C67.4686 45.1769 67.7207 44.9766 68.4846 44.7737C69.0084 44.6343 70.2063 44.5534 71.1466 44.5938L72.8564 44.6672L72.9247 43.9756C72.9881 43.3314 72.9346 43.2748 72.1367 43.1445C71.6658 43.0678 70.6221 43.0082 69.8173 43.0122C69.0125 43.0162 67.9488 43.1612 67.4535 43.3341ZM75.0725 43.3232C75.1417 43.5008 75.9629 44.9604 76.8976 46.5667C78.5944 49.4825 78.5971 49.4896 78.5971 51.1339V52.7808H79.4976H80.398V51.1139V49.4469L82.199 46.3208C83.1896 44.6014 84 43.1452 84 43.0845C84 43.024 83.5702 43.0051 83.045 43.0429C82.122 43.1089 82.0637 43.1594 81.2972 44.556L80.5041 46.0009H79.4976C78.4915 46.0009 78.4908 46.0003 77.6162 44.5005C76.7666 43.0436 76.715 43 75.844 43C75.1518 43 74.9755 43.0738 75.0725 43.3232ZM47.2891 43.8336C47.1626 44.1697 46.3548 46.251 45.4937 48.4586C44.6326 50.6664 43.9282 52.5419 43.9282 52.6265C43.9282 52.7115 44.3087 52.7808 44.7738 52.7808C45.5993 52.7808 45.6306 52.7504 46.0844 51.5026L46.5493 50.2245L48.8105 50.1616L51.0716 50.0984L51.5795 51.4397C52.084 52.7715 52.0939 52.7808 52.9847 52.7808C53.7478 52.7808 53.8588 52.7228 53.7276 52.3918C53.6427 52.1777 52.8059 50.0271 51.8683 47.6125L50.1634 43.2223H48.8413C47.6047 43.2223 47.5041 43.2619 47.2891 43.8336ZM55.7847 43.3706C55.7021 43.4519 55.6346 45.6026 55.6346 48.1498V52.7808H56.4225H57.2104V50.8913V49.0019H58.6487C59.6929 49.0019 60.2136 49.1086 60.5486 49.3909C60.8023 49.6047 61.1985 50.4301 61.4288 51.2248L61.8477 52.6697L62.823 52.7395C63.5553 52.7919 63.7705 52.7366 63.6868 52.5172C63.6253 52.3565 63.3453 51.5749 63.0645 50.7802C62.7836 49.9855 62.3155 49.1163 62.0245 48.8489C61.5155 48.3812 61.5121 48.3572 61.9358 48.2245C62.1782 48.1485 62.5819 47.8288 62.8326 47.5138C63.1343 47.1353 63.2887 46.6089 63.2887 45.9598C63.2887 45.4201 63.1444 44.703 62.9679 44.366C62.7914 44.029 62.3815 43.634 62.0569 43.4879C61.7016 43.3281 60.3655 43.2223 58.7008 43.2223C57.1794 43.2223 55.8671 43.289 55.7847 43.3706ZM30.9038 45.0217C31.1073 45.1273 31.386 45.5306 31.5229 45.9182C31.6597 46.3059 31.7716 47.3133 31.7716 48.1569C31.7716 49.0714 31.6381 49.9459 31.4407 50.3225C31.2556 50.6759 30.7946 51.063 30.3941 51.2008C30.0003 51.3361 29.4047 51.4471 29.0701 51.4471C28.7356 51.4471 28.1575 51.3421 27.7854 51.2141C27.413 51.0861 26.9675 50.7202 26.7948 50.4012C26.5954 50.0322 26.4812 49.113 26.4812 47.8733C26.4812 46.129 26.5371 45.8664 27.0155 45.3638C27.3092 45.0551 27.8158 44.7601 28.1411 44.7081C28.4664 44.6561 29.1377 44.6623 29.633 44.7216C30.1282 44.7812 30.7 44.9164 30.9038 45.0217ZM61.142 44.994C61.3432 45.1589 61.4878 45.6344 61.4878 46.1314C61.4878 46.7485 61.3669 47.0495 61.0524 47.2158C60.8128 47.3422 59.8505 47.4458 58.9137 47.4458H57.2104V46.1492C57.2104 45.4359 57.2863 44.7752 57.3793 44.681C57.4723 44.5867 58.2789 44.5547 59.1722 44.6101C60.0652 44.6652 60.9517 44.8381 61.142 44.994ZM49.6227 46.2788C49.9354 47.1039 50.262 47.9544 50.3483 48.1683C50.4885 48.5168 50.3384 48.5573 48.905 48.5573C48.025 48.5573 47.3051 48.4824 47.3053 48.3906C47.3053 48.2988 47.4993 47.7237 47.7364 47.1124C47.9734 46.5011 48.2749 45.726 48.4061 45.3896C48.5374 45.0533 48.7366 44.7783 48.8492 44.7783C48.9617 44.7783 49.3098 45.4537 49.6227 46.2788Z" fill="#F29313"/>
<path fill-rule="evenodd" clip-rule="evenodd" d="M24.6854 18.4028C25.1807 19.2522 28.054 24.2332 31.0705 29.4716C34.0868 34.7097 36.6393 38.9976 36.7423 39C36.8453 39.0021 37.6395 37.9405 38.5073 36.6405C39.375 35.3405 40.1662 34.2769 40.2656 34.2769C40.365 34.2769 41.4821 35.2897 42.7481 36.5276L45.0498 38.7787L51.1111 35.6413C54.4449 33.9158 57.3461 32.5042 57.5584 32.5042C57.7705 32.5042 60.6333 33.6254 63.9198 34.9957L69.8953 37.4873L69.9764 31.1114C70.0208 27.6047 70.0007 24.68 69.9316 24.612C69.8625 24.5438 69.0825 24.8776 68.1985 25.3539C67.3145 25.8302 65.2859 26.8941 63.6904 27.7184L60.7897 29.2172L54.5452 24.5243L48.3003 19.8313L46.3867 22.6461C45.3126 24.2261 44.3175 25.3982 44.1184 25.3181C43.9234 25.2395 39.5735 23.4184 34.4523 21.271C29.3311 19.1237 24.8359 17.252 24.4628 17.1122C23.809 16.867 23.8171 16.9134 24.6854 18.4028ZM37.9044 24.1378C40.7939 25.3406 43.2566 26.4214 43.3768 26.5395C43.4969 26.6577 42.822 27.9125 41.8773 29.328C40.9324 30.7438 40.0917 31.9044 40.0091 31.9076C39.9265 31.9106 37.2493 29.2568 34.0598 26.0101L28.2606 20.1072L30.4554 21.029C31.6626 21.536 35.0146 22.935 37.9044 24.1378ZM54.015 25.7421C56.6369 27.7104 58.9158 29.4444 59.0798 29.5954C59.2738 29.7742 59.2215 29.9692 58.9296 30.1553C58.683 30.3125 58.1919 30.5172 57.8381 30.6103C57.4206 30.7202 55.5679 30.093 52.5589 28.8234L47.9231 26.8672L48.3787 24.5151C48.6292 23.2216 48.9275 22.1633 49.0413 22.1633C49.1555 22.1633 51.3935 23.7738 54.015 25.7421ZM39.0506 33.1152C39.1017 33.2428 38.6433 34.0881 38.0318 34.9939C37.4205 35.8995 36.8805 36.6405 36.8318 36.6405C36.7832 36.6405 35.1552 33.8819 33.2136 30.5098C31.2724 27.1378 29.417 23.9138 29.0905 23.3451C28.7604 22.7699 30.8182 24.6569 33.7273 27.5973C36.6041 30.5045 38.9996 32.9878 39.0506 33.1152ZM46.912 24.9934C46.7787 25.5752 46.5991 26.1203 46.5132 26.2048C46.4269 26.2896 46.2194 26.2754 46.0515 26.1732C45.8614 26.0577 45.9782 25.6006 46.3615 24.9618C46.7 24.3975 47.0169 23.936 47.0655 23.936C47.1145 23.936 47.0454 24.412 46.912 24.9934ZM68.7818 33.1252L68.6938 35.1963L65.54 32.8032C63.8054 31.4869 62.3432 30.2886 62.2904 30.1402C62.2378 29.9919 63.657 29.1487 65.4442 28.2662L68.6938 26.6616L68.7818 28.8577C68.8302 30.0655 68.8302 31.9859 68.7818 33.1252ZM46.2723 27.6469C46.3305 27.6974 45.9962 29.7417 45.5298 32.1898L44.6815 36.6411L42.8214 34.8276L40.9615 33.0144L42.937 30.0956C44.6215 27.607 45.0053 27.2046 45.5397 27.3659C45.8845 27.4699 46.214 27.5961 46.2723 27.6469ZM51.6214 29.8634C53.5774 30.6859 55.2889 31.4671 55.4249 31.5989C55.5613 31.731 53.5522 32.9264 50.96 34.255C48.3682 35.584 46.1984 36.6225 46.1377 36.5631C46.0773 36.5034 46.3924 34.6353 46.8378 32.4114C47.2836 30.1875 47.7419 28.3678 47.8567 28.3678C47.9717 28.3678 49.6658 29.0409 51.6214 29.8634ZM62.7643 32.3396C63.6213 32.9804 64.2794 33.5474 64.2265 33.5991C64.1736 33.6511 63.3326 33.345 62.3573 32.919C61.3821 32.4929 60.2461 32.0158 59.8331 31.8589L59.0822 31.5732L59.8307 31.1776C60.2422 30.9601 60.7201 30.8703 60.8928 30.9784C61.0652 31.0863 61.9077 31.699 62.7643 32.3396Z" fill="#F29313"/>
<path d="M90.5 59H62.5C61.6716 59 61 59.6716 61 60.5C61 61.3284 61.6716 62 62.5 62H90.5C91.3284 62 92 61.3284 92 60.5C92 59.6716 91.3284 59 90.5 59Z" fill="#CBCBCB"/>
<path d="M90.5 64H62.5C61.6716 64 61 64.6716 61 65.5C61 66.3284 61.6716 67 62.5 67H90.5C91.3284 67 92 66.3284 92 65.5C92 64.6716 91.3284 64 90.5 64Z" fill="#CBCBCB"/>
<path d="M96.5 86C103.404 86 109 80.4036 109 73.5C109 66.5964 103.404 61 96.5 61C89.5964 61 84 66.5964 84 73.5C84 80.4036 89.5964 86 96.5 86Z" fill="#F29313"/>
<path fill-rule="evenodd" clip-rule="evenodd" d="M104.072 74.3431L97.7078 80.7071C97.3173 81.0976 96.6841 81.0976 96.2936 80.7071L89.9296 74.3431C89.5391 73.9526 89.5391 73.3195 89.9296 72.9289C90.3201 72.5384 90.9533 72.5384 91.3438 72.9289L96.0007 77.5858V66H98.0007V77.5858L102.658 72.9289C103.048 72.5384 103.682 72.5384 104.072 72.9289C104.463 73.3195 104.463 73.9526 104.072 74.3431Z" fill="white"/>
</g>
<defs>
<clipPath id="clip0_474_14186">
<rect width="109" height="86" fill="white"/>
</clipPath>
</defs>
</svg>
