<svg width="148" height="148" viewBox="0 0 148 148" fill="none" xmlns="http://www.w3.org/2000/svg">
<g clip-path="url(#clip0_476_2540)">
<path d="M15.8555 140.071C15.8555 144.45 19.4052 148 23.784 148C28.1629 148 31.7126 144.45 31.7126 140.071V108.357C31.7126 106.898 32.8959 105.714 34.3555 105.714C35.8151 105.714 36.9983 106.898 36.9983 108.357V140.071C36.9983 144.45 40.5481 148 44.9269 148C49.3057 148 52.8555 144.45 52.8555 140.071V92.5H15.8555V140.071Z" fill="#FFA500"/>
<path d="M34.3538 42.2857C46.0307 42.2857 55.4967 32.8197 55.4967 21.1429C55.4967 9.46598 46.0307 0 34.3538 0C22.6769 0 13.2109 9.46598 13.2109 21.1429C13.2109 32.8197 22.6769 42.2857 34.3538 42.2857Z" fill="#FFA500"/>
<path d="M54.2555 47.5715H21.1405C9.46358 47.5715 -0.00240232 57.0375 -0.00240232 68.7143V94.8443C-0.0641896 97.5009 1.78413 99.821 4.38738 100.355C5.92379 100.619 7.49849 100.191 8.69037 99.1865C9.88226 98.1816 10.5698 96.7019 10.569 95.1429V71.3572C10.569 69.8976 11.7523 68.7143 13.2119 68.7143C14.6715 68.7143 15.8547 69.8976 15.8547 71.3572V87.2143H52.8547V60.9179C52.855 59.8491 53.4989 58.8857 54.4863 58.4768C55.4737 58.0678 56.6103 58.2938 57.3661 59.0494L72.1291 73.8124C72.8849 74.568 74.0215 74.794 75.0089 74.385C75.9963 73.9761 76.6402 73.0127 76.6405 71.9439V64.4858C76.6403 63.7849 76.3618 63.1128 75.8661 62.6173L65.4744 52.2229C62.5002 49.245 58.4642 47.5717 54.2555 47.5715Z" fill="#FFA500"/>
<path d="M95.1406 10.5714V50.2143C95.1406 53.1335 97.5071 55.5 100.426 55.5H142.712C145.631 55.5 147.998 53.1335 147.998 50.2143V10.5714C147.998 7.6522 145.631 5.28571 142.712 5.28571H100.426C97.5071 5.28571 95.1406 7.6522 95.1406 10.5714ZM129.498 50.2143H113.641C112.181 50.2143 110.998 49.031 110.998 47.5714C110.998 46.1118 112.181 44.9286 113.641 44.9286H118.926V19.5941L115.509 23.0113C114.472 24.0129 112.824 23.9986 111.804 22.9792C110.785 21.9597 110.771 20.3114 111.772 19.2744L119.701 11.3458C120.457 10.5902 121.593 10.3642 122.581 10.7731C123.568 11.1821 124.212 12.1455 124.212 13.2143V44.9286H129.498C130.957 44.9286 132.141 46.1118 132.141 47.5714C132.141 49.031 130.957 50.2143 129.498 50.2143Z" fill="#FFA500"/>
<path d="M87.2115 0H84.5686C83.109 0 81.9258 1.18325 81.9258 2.64286V145.357C81.9258 146.817 83.109 148 84.5686 148H87.2115C88.6711 148 89.8544 146.817 89.8544 145.357V2.64286C89.8544 1.18325 88.6711 0 87.2115 0Z" fill="#FFA500"/>
</g>
<defs>
<clipPath id="clip0_476_2540">
<rect width="148" height="148" fill="white"/>
</clipPath>
</defs>
</svg>
