<svg width="40" height="40" viewBox="0 0 40 40" fill="none" xmlns="http://www.w3.org/2000/svg">
<path d="M19.7923 15.5557C18.7568 15.5557 17.9173 14.6852 17.9173 13.6113C17.9173 12.5374 18.7568 11.6668 19.7923 11.6668C20.8279 11.6668 21.6673 12.5374 21.6673 13.6113C21.6673 14.6852 20.8279 15.5557 19.7923 15.5557Z" fill="white"/>
<path d="M31.6673 23.3335H16.6673L20.4173 18.1483L21.6673 19.4446L25.4173 14.2594L31.6673 23.3335Z" fill="white"/>
<path fill-rule="evenodd" clip-rule="evenodd" d="M33.334 30.0002H13.334C11.493 30.0002 10.0007 28.5078 10.0007 26.6668V6.66683C10.0007 4.82588 11.493 3.3335 13.334 3.3335H33.334C35.1749 3.3335 36.6673 4.82588 36.6673 6.66683V26.6668C36.6673 28.5078 35.1749 30.0002 33.334 30.0002ZM13.334 6.66683V26.6668H33.334V6.66683H13.334Z" fill="white"/>
<path d="M6.66732 13.3335H3.33398V33.3335C3.33398 35.1744 4.82637 36.6668 6.66732 36.6668H26.6673V33.3335H6.66732V13.3335Z" fill="white"/>
</svg>
