<svg width="148" height="148" viewBox="0 0 148 148" fill="none" xmlns="http://www.w3.org/2000/svg">
<g clip-path="url(#clip0_476_2557)">
<path d="M42.1315 44.5V44.4893C42.1552 39.7406 44.0626 35.4412 47.2529 32.3463C45.7246 31.7422 44.0583 31.4227 42.3997 31.4227C39.0766 31.4227 16.4337 31.4227 13.1117 31.4227C5.90615 31.4227 0.0353003 37.2042 0 44.2958V84.3755C0 87.3931 2.44701 89.8308 5.45534 89.8308C8.46831 89.8308 10.9107 87.3882 10.9107 84.3755V44.3233C10.9547 42.8618 12.1294 42.3337 13.2437 42.3337C13.2272 70.942 13.2625 107.423 13.2437 136.032C13.2437 139.687 16.2266 142.579 19.7957 142.579C23.4113 142.579 26.3424 139.648 26.3424 136.032V83.7045H29.169V136.032C29.169 139.648 32.0998 142.579 35.7158 142.579C39.1009 142.579 42.1318 140.024 42.1318 136.032C42.1318 136.002 42.1318 44.5403 42.1318 44.5105V44.5H42.1315Z" fill="#FFA500"/>
<path d="M32.0968 26.9529C37.8668 24.5612 40.6054 17.9449 38.2138 12.1749C35.8221 6.40492 29.2058 3.66625 23.4358 6.05792C17.6658 8.44959 14.9271 15.0659 17.3188 20.8359C19.7105 26.6059 26.3268 29.3446 32.0968 26.9529Z" fill="#FFA500"/>
<path d="M88.3776 44.5V44.4893C88.4007 39.819 90.2427 35.5824 93.3413 32.4997C91.8819 31.945 90.2994 31.6377 88.6461 31.6377H74.0254H73.9785H59.3578C56.2245 31.6377 53.3024 32.7361 51.0073 34.6122C48.1187 36.9732 46.2661 40.5305 46.2461 44.5107V84.5905C46.2461 87.0728 47.9058 89.1645 50.1748 89.8253C53.68 90.8453 57.1571 88.2151 57.1571 84.5905C57.1608 58.4682 57.1669 44.5064 57.1715 44.3368C57.2262 42.3421 59.4044 42.549 59.4044 42.549V136.248C59.4044 139.863 62.4264 142.794 66.042 142.794C69.6577 142.794 72.5888 139.863 72.5888 136.248V83.9192H75.4151V136.247C75.4151 139.863 78.3462 142.794 81.9619 142.794C85.5776 142.794 88.3776 139.863 88.3776 136.247C88.3776 136.247 88.4543 86.03 88.3776 44.5107V44.5Z" fill="#FFA500"/>
<path d="M74.2731 28.0173C80.5176 27.8799 85.4685 22.7063 85.3311 16.4618C85.1937 10.2172 80.0201 5.26634 73.7756 5.40372C67.531 5.5411 62.5801 10.7147 62.7175 16.9593C62.8549 23.2038 68.0285 28.1547 74.2731 28.0173Z" fill="#FFA500"/>
<path d="M148 44.4833C147.964 37.4053 142.079 31.6375 134.888 31.6375H120.268H120.221H105.6C102.537 31.6375 99.5269 32.7037 97.1236 34.719C94.308 37.0801 92.508 40.589 92.4883 44.5105V84.5902C92.4883 87.6567 95.0016 90.0456 97.9439 90.0456C100.939 90.0456 103.399 87.6217 103.399 84.5902C103.399 81.1279 103.399 49.9326 103.399 44.5377C103.404 43.5244 104.539 42.5484 105.711 42.5484V136.247C105.711 140.131 109.095 143.153 112.954 142.76C116.255 142.425 118.831 139.637 118.831 136.247V83.9192H121.658V136.247C121.658 139.863 124.589 142.794 128.204 142.794C131.82 142.794 134.777 139.863 134.777 136.247C134.769 125.011 134.784 57.5811 134.777 42.5487C135.962 42.5487 137.084 43.536 137.089 44.5108V84.5905C137.089 87.6035 139.531 90.0459 142.544 90.0459C145.592 90.0459 148 87.5534 148 84.5905C148 81.1302 148 49.6559 148 44.4833Z" fill="#FFA500"/>
<path d="M120.244 28.0336C126.489 28.0336 131.551 22.9714 131.551 16.7268C131.551 10.4823 126.489 5.42004 120.244 5.42004C114 5.42004 108.938 10.4823 108.938 16.7268C108.938 22.9714 114 28.0336 120.244 28.0336Z" fill="#FFA500"/>
</g>
<defs>
<clipPath id="clip0_476_2557">
<rect width="148" height="148" fill="white"/>
</clipPath>
</defs>
</svg>
