<svg width="7" height="10" viewBox="0 0 7 10" fill="none" xmlns="http://www.w3.org/2000/svg">
<path d="M3.612 0.0319998C4.536 0.0319998 5.23133 0.209333 5.698 0.564C6.16467 0.909333 6.398 1.45533 6.398 2.202C6.398 2.622 6.314 2.986 6.146 3.294C5.978 3.602 5.76333 3.882 5.502 4.134C5.25 4.386 4.998 4.64733 4.746 4.918C4.494 5.18867 4.27933 5.49667 4.102 5.842C3.92467 6.178 3.83133 6.59333 3.822 7.088H3.038C3.02867 6.56533 3.10333 6.11733 3.262 5.744C3.42067 5.37067 3.62133 5.044 3.864 4.764C4.10667 4.484 4.34933 4.22267 4.592 3.98C4.83467 3.73733 5.04 3.49 5.208 3.238C5.376 2.97667 5.46 2.678 5.46 2.342C5.47867 1.81 5.32467 1.418 4.998 1.166C4.67133 0.913999 4.15333 0.787999 3.444 0.787999C2.98667 0.787999 2.60867 0.797333 2.31 0.816C2.02067 0.825333 1.75467 0.844 1.512 0.872C1.27867 0.890666 1.00333 0.918666 0.686 0.956L0.616 0.312C0.849333 0.265333 1.05933 0.228 1.246 0.199999C1.442 0.172 1.64267 0.144 1.848 0.116C2.05333 0.0879994 2.296 0.0693327 2.576 0.0599995C2.856 0.041333 3.20133 0.0319998 3.612 0.0319998ZM3.556 8.502C3.67733 8.502 3.76133 8.53 3.808 8.586C3.864 8.642 3.892 8.73067 3.892 8.852V9.65C3.892 9.78067 3.864 9.874 3.808 9.93C3.76133 9.97667 3.67733 10 3.556 10H3.29C3.16867 10 3.08 9.97667 3.024 9.93C2.97733 9.874 2.954 9.78067 2.954 9.65V8.852C2.954 8.73067 2.97733 8.642 3.024 8.586C3.08 8.53 3.16867 8.502 3.29 8.502H3.556Z" fill="white"/>
</svg>
