<svg width="28" height="28" viewBox="0 0 28 28" fill="none" xmlns="http://www.w3.org/2000/svg">
<path d="M18.7422 20.8804L21.7522 17.8704V20.8804H18.7422Z" fill="#FFA500"/>
<path d="M23.7357 7.25952L12.2469 18.7424L7.48111 19.6524L8.39111 14.8749L16.0065 7.25952H4.88236V22.887H2.6657C2.2021 22.9057 1.76371 23.103 1.4423 23.4376C1.1209 23.7723 0.941406 24.2183 0.941406 24.6822C0.941406 25.1462 1.1209 25.5922 1.4423 25.9268C1.76371 26.2614 2.2021 26.4587 2.6657 26.4774H27.7053V7.25952H23.7357ZM25.5557 24.6808H9.5607C16.6949 17.5612 22.2978 11.9408 25.5557 8.6916V24.6808Z" fill="#FFA500"/>
<path d="M4.29948 3.08862V22.3036H2.37448C1.82163 22.3044 1.29164 22.5244 0.900719 22.9153C0.509795 23.3062 0.289834 23.8362 0.289062 24.389V5.17404C0.289063 4.62095 0.508775 4.09052 0.899867 3.69943C1.29096 3.30834 1.82139 3.08862 2.37448 3.08862H4.29948Z" fill="#FFA500"/>
<path d="M12.8969 17.2752L11.9694 18.2027L11.4356 18.3048L8.82812 15.6973L8.93021 15.1665L9.03812 15.0498L10.864 15.2481C10.9398 15.9511 10.9194 15.7586 11.0652 17.074L12.8969 17.2752Z" fill="#FFA500"/>
<path d="M20.5234 5.18853L11.0296 14.6794L9.57422 14.5219L19.7155 4.38062L20.5234 5.18853Z" fill="#FFA500"/>
<path d="M21.536 6.20069L11.561 16.1757L11.4414 15.0936L20.9352 5.59985L21.536 6.20069Z" fill="#FFA500"/>
<path d="M22.7517 7.41998L13.4242 16.7475L11.9688 16.5871L21.9437 6.61206L22.7517 7.41998Z" fill="#FFA500"/>
<path d="M8.69609 16.3916L8.21484 18.9174L10.7436 18.4362L8.69609 16.3916Z" fill="#FFA500"/>
<path d="M20.125 3.96948L21.2303 2.86421L24.2698 5.90372L23.1645 7.00899L20.125 3.96948Z" fill="#FFA500"/>
<path d="M25.371 4.80944L24.6915 5.48903L21.6406 2.44986L22.3202 1.77028C22.4804 1.61034 22.6976 1.52051 22.924 1.52051C23.1503 1.52051 23.3675 1.61034 23.5277 1.77028L25.371 3.60194C25.4506 3.68109 25.5137 3.77516 25.5568 3.87878C25.5998 3.98239 25.622 4.09349 25.622 4.20569C25.622 4.3179 25.5998 4.429 25.5568 4.53261C25.5137 4.63623 25.4506 4.7303 25.371 4.80944Z" fill="#FFA500"/>
<path d="M23.1576 11.9087L24.0326 12.7837C24.0721 12.8403 24.0903 12.9091 24.0839 12.9779C24.0775 13.0466 24.0469 13.1109 23.9975 13.1592C23.9481 13.2075 23.8832 13.2367 23.8143 13.2417C23.7455 13.2466 23.677 13.2269 23.6213 13.1862L22.7463 12.3112L21.9121 13.1453L22.7871 14.0203C22.8421 14.0749 22.8731 14.149 22.8733 14.2264C22.8736 14.3038 22.8431 14.3781 22.7886 14.433C22.7341 14.488 22.6599 14.519 22.5825 14.5192C22.5051 14.5195 22.4308 14.489 22.3759 14.4345L21.5009 13.5595L20.6667 14.3937L21.5417 15.2541C21.5689 15.2811 21.5905 15.3132 21.6053 15.3485C21.6201 15.3839 21.6278 15.4218 21.6279 15.4601C21.6281 15.4985 21.6206 15.5364 21.6061 15.5719C21.5916 15.6073 21.5702 15.6396 21.5432 15.6668C21.5162 15.694 21.4841 15.7156 21.4487 15.7304C21.4134 15.7452 21.3754 15.7529 21.3371 15.753C21.2988 15.7531 21.2608 15.7457 21.2254 15.7312C21.1899 15.7166 21.1577 15.6952 21.1305 15.6682L20.2555 14.7932L19.4213 15.6478L20.2963 16.5228C20.3286 16.5492 20.3549 16.5821 20.3734 16.6194C20.3919 16.6568 20.4022 16.6977 20.4036 16.7393C20.4049 16.781 20.3974 16.8224 20.3814 16.8609C20.3654 16.8994 20.3413 16.934 20.3108 16.9624C20.2803 16.9908 20.2441 17.0123 20.2045 17.0256C20.165 17.0388 20.1231 17.0434 20.0817 17.039C20.0402 17.0347 20.0002 17.0215 19.9643 17.0004C19.9283 16.9793 19.8973 16.9507 19.8734 16.9166L18.9984 16.0416L18.1642 16.8757L19.0392 17.7362C19.0941 17.7907 19.1251 17.8648 19.1254 17.9422C19.1257 18.0196 19.0952 18.0939 19.0407 18.1489C18.9861 18.2038 18.912 18.2348 18.8346 18.2351C18.7572 18.2353 18.6829 18.2049 18.628 18.1503L17.753 17.2753L16.9188 18.1095L17.7938 18.9845C17.8487 19.0394 17.8796 19.1139 17.8796 19.1916C17.8796 19.2693 17.8487 19.3437 17.7938 19.3987C17.7389 19.4536 17.6644 19.4844 17.5867 19.4844C17.509 19.4844 17.4346 19.4536 17.3796 19.3987L16.5046 18.5237L15.6705 19.3578L16.5455 20.2328C16.5998 20.2875 16.6303 20.3614 16.6303 20.4385C16.6303 20.5155 16.5998 20.5894 16.5455 20.6441C16.5184 20.6714 16.4861 20.6931 16.4506 20.7079C16.415 20.7227 16.3769 20.7304 16.3384 20.7304C16.2999 20.7304 16.2618 20.7227 16.2262 20.7079C16.1907 20.6931 16.1584 20.6714 16.1313 20.6441L15.2709 19.7691L14.4367 20.6032L15.3117 21.4782C15.366 21.5329 15.3965 21.6068 15.3965 21.6839C15.3965 21.7609 15.366 21.8349 15.3117 21.8895C15.2846 21.9168 15.2523 21.9385 15.2168 21.9533C15.1813 21.9681 15.1431 21.9758 15.1046 21.9758C15.0661 21.9758 15.028 21.9681 14.9925 21.9533C14.9569 21.9385 14.9247 21.9168 14.8976 21.8895L14.0226 21.0145L13.1942 21.8749L14.0692 22.7499C14.1235 22.8046 14.154 22.8785 14.154 22.9555C14.154 23.0326 14.1235 23.1065 14.0692 23.1612C14.0421 23.1885 14.0098 23.2102 13.9743 23.225C13.9388 23.2398 13.9006 23.2474 13.8621 23.2474C13.8236 23.2474 13.7855 23.2398 13.75 23.225C13.7144 23.2102 13.6822 23.1885 13.6551 23.1612L12.7946 22.2862L10.9805 24.0974H24.9805V10.0974L23.1576 11.9087ZM22.3351 21.4637H17.333L22.3351 16.4616V21.4637Z" fill="#FFA500"/>
</svg>
