<svg width="30" height="29" viewBox="0 0 30 29" fill="none" xmlns="http://www.w3.org/2000/svg">
<path d="M7.03125 21.0312H1.40625V19.1562H7.03125V21.0312ZM23.4844 17.8798C23.5181 18.2181 23.4432 18.5583 23.2706 18.8511L21.465 21.3078L20.3353 20.4603L22.4128 17.5541C22.4696 17.4744 22.5001 17.3791 22.5 17.2812V16.8777C22.7488 16.9195 22.9781 17.039 23.1549 17.219C23.3317 17.399 23.447 17.6303 23.4844 17.8798ZM20.6002 25.0808L19.6875 25.9934L18.7748 25.0808L19.223 21.4948L19.6875 21.1461L20.152 21.4948L20.6002 25.0808ZM17.8125 16.0156C19.0242 16.4531 20.3508 16.4531 21.5625 16.0156V17.1289L19.6875 19.7539L17.8125 17.1289V16.0156ZM25.3125 9.695V7.055C25.5865 7.15046 25.824 7.32882 25.9921 7.56535C26.1601 7.80188 26.2504 8.08484 26.2504 8.375C26.2504 8.66516 26.1601 8.94812 25.9921 9.18465C25.824 9.42118 25.5865 9.59954 25.3125 9.695ZM24.6094 6.03125H14.7656C14.5791 6.03125 14.4003 5.95717 14.2684 5.82531C14.1366 5.69345 14.0625 5.51461 14.0625 5.32812C14.0625 5.14164 14.1366 4.9628 14.2684 4.83094C14.4003 4.69908 14.5791 4.625 14.7656 4.625H24.6094C24.7959 4.625 24.9747 4.69908 25.1066 4.83094C25.2384 4.9628 25.3125 5.14164 25.3125 5.32812C25.3125 5.51461 25.2384 5.69345 25.1066 5.82531C24.9747 5.95717 24.7959 6.03125 24.6094 6.03125ZM12.2344 7.90625H11.6569L13.1569 5.65625C13.2066 5.89236 13.3083 6.11445 13.4545 6.30641C13.1451 6.46575 12.8751 6.69201 12.664 6.96873C12.453 7.24546 12.3062 7.56572 12.2344 7.90625ZM8.37516 7.90625L10.5628 4.625H12.7191L10.5314 7.90625H8.37516ZM5.09391 7.90625L7.28156 4.625H9.43781L7.25016 7.90625H5.09391ZM17.8125 1.19094V3.6875H15.1505C15.3764 3.0971 15.7334 2.56567 16.1945 2.13322C16.6556 1.70078 17.2088 1.37859 17.8125 1.19094ZM24.2255 3.6875H21.5625V1.19094C22.1664 1.37828 22.7199 1.70035 23.1812 2.13282C23.6425 2.5653 23.9996 3.09689 24.2255 3.6875ZM20.625 0.40625V3.6875H18.75V0.40625H20.625ZM15.4688 1.51719C14.8357 2.09924 14.3865 2.85359 14.1764 3.6875H13.5938V0.40625H15.4688V1.51719ZM11.5008 0.40625H12.6562V3.6875H9.31313L11.5008 0.40625ZM4.00078 4.625H6.15703L3.96797 7.90625H1.81172L4.00078 4.625ZM13.125 8.375C13.1262 8.08519 13.2169 7.80283 13.3847 7.56655C13.5525 7.33027 13.7893 7.1516 14.0625 7.055V9.695C13.7893 9.5984 13.5525 9.41973 13.3847 9.18345C13.2169 8.94717 13.1262 8.66481 13.125 8.375ZM15 10.7188V6.96875H24.375V10.7188C24.375 11.962 23.8811 13.1542 23.0021 14.0333C22.123 14.9124 20.9307 15.4062 19.6875 15.4062C18.4443 15.4062 17.252 14.9124 16.3729 14.0333C15.4939 13.1542 15 11.962 15 10.7188ZM16.875 16.8758V17.2812C16.875 17.3789 16.9055 17.4741 16.9622 17.5536L19.0397 20.4598L18.4964 20.8672H18.4936L17.91 21.305L16.1034 18.8483C15.9308 18.5555 15.8559 18.2153 15.8897 17.877C15.9273 17.6275 16.0428 17.3963 16.2198 17.2165C16.3968 17.0366 16.6261 16.9174 16.875 16.8758ZM10.7812 21.5C10.7793 20.9986 10.9389 20.51 11.2366 20.1066C11.5342 19.7031 11.954 19.4064 12.4336 19.2603L14.9869 18.4859C15.0432 18.7859 15.1499 19.0742 15.3023 19.3386C15.3113 19.3541 15.3211 19.3691 15.3314 19.3855L17.4347 22.2448C17.4713 22.295 17.5174 22.3375 17.5706 22.3696C17.6237 22.4018 17.6826 22.4231 17.7441 22.4323C17.7667 22.4357 17.7896 22.4374 17.8125 22.4375C17.9139 22.4375 18.0126 22.4046 18.0938 22.3438L18.1805 22.2791L17.8162 25.1942C17.8074 25.265 17.8148 25.3369 17.838 25.4044C17.8611 25.4719 17.8994 25.5333 17.9498 25.5838L19.3561 26.99C19.444 27.0779 19.5632 27.1272 19.6875 27.1272C19.8118 27.1272 19.931 27.0779 20.0189 26.99L21.4252 25.5838C21.4756 25.5333 21.5139 25.4719 21.537 25.4044C21.5602 25.3369 21.5676 25.265 21.5588 25.1942L21.1945 22.2791L21.2812 22.3438C21.3624 22.4046 21.4611 22.4375 21.5625 22.4375C21.5854 22.4374 21.6083 22.4357 21.6309 22.4323C21.6924 22.4231 21.7513 22.4018 21.8044 22.3696C21.8576 22.3375 21.9037 22.295 21.9403 22.2448L24.0436 19.3855C24.0539 19.3709 24.0637 19.3559 24.0727 19.3386C24.2251 19.0742 24.3318 18.7859 24.3881 18.4859L26.9395 19.2598C27.4195 19.4056 27.8397 19.7023 28.1377 20.1059C28.4357 20.5095 28.5956 20.9983 28.5938 21.5V27.5938H26.25V23.375C26.25 23.2507 26.2006 23.1315 26.1127 23.0435C26.0248 22.9556 25.9056 22.9062 25.7812 22.9062C25.6569 22.9062 25.5377 22.9556 25.4498 23.0435C25.3619 23.1315 25.3125 23.2507 25.3125 23.375V27.5938H14.0625V23.375C14.0625 23.2507 14.0131 23.1315 13.9252 23.0435C13.8373 22.9556 13.7181 22.9062 13.5938 22.9062C13.4694 22.9062 13.3502 22.9556 13.2623 23.0435C13.1744 23.1315 13.125 23.2507 13.125 23.375V27.5938H10.7812V21.5Z" fill="white"/>
<path d="M3.74875 13.5903C3.3845 13.6832 3.05676 13.8839 2.80838 14.1661C2.55999 14.4482 2.40252 14.7988 2.35654 15.1718C2.31056 15.5449 2.37822 15.9232 2.55067 16.2572C2.72312 16.5913 2.99233 16.8655 3.32313 17.0441L2.14844 18.2188H3.47406L4.2175 17.4753L4.96094 18.2188H6.28656L5.11469 17.0469C5.24145 16.9798 5.36005 16.8983 5.46813 16.8041C5.55942 16.7208 5.61414 16.6048 5.62038 16.4814C5.62663 16.358 5.58389 16.2371 5.50146 16.1451C5.41904 16.053 5.3036 15.9972 5.18025 15.9898C5.05691 15.9824 4.93563 16.0241 4.84281 16.1056C4.72951 16.2068 4.59332 16.2789 4.44597 16.3157C4.29863 16.3526 4.14453 16.3531 3.99695 16.3172C3.84937 16.2813 3.71271 16.2101 3.59875 16.1097C3.48478 16.0093 3.39692 15.8827 3.34272 15.7408C3.28851 15.5989 3.2696 15.446 3.28759 15.2952C3.30559 15.1444 3.35995 15.0002 3.44602 14.875C3.53208 14.7499 3.64726 14.6475 3.78165 14.5767C3.91604 14.506 4.06561 14.4689 4.2175 14.4688C4.34182 14.4688 4.46105 14.4194 4.54896 14.3315C4.63686 14.2435 4.68625 14.1243 4.68625 14V8.84375H3.74875V13.5903Z" fill="white"/>
</svg>
