<svg width="32" height="29" viewBox="0 0 32 29" fill="none" xmlns="http://www.w3.org/2000/svg">
<path d="M27.8533 5.65754L26.7665 5.1377L25.0962 8.66175C25.095 8.66483 25.0934 8.66753 25.0921 8.67053L21.7422 15.7381L22.5867 16.1413L22.8425 16.2623L27.8533 5.65754Z" fill="#FFA500"/>
<path d="M27.0352 4.58789L27.3274 3.97628L30.0805 5.29178L29.7882 5.90338L27.0352 4.58789Z" fill="#FFA500"/>
<path d="M22.2869 16.6866L21.6268 16.374L21.6133 17.8263C21.8671 17.8332 22.1166 17.8895 22.3498 18.0012C22.5888 18.1156 22.7915 18.2774 22.9562 18.4719L24.0718 17.5388L22.2869 16.6866Z" fill="#FFA500"/>
<path d="M30.3497 4.71659L31.1596 3.02968L31.1855 2.97526C31.2339 2.8717 31.2358 2.76039 31.2113 2.65599C31.2072 2.63832 31.2093 2.61947 31.2033 2.60237C31.1887 2.56095 31.1622 2.52507 31.1372 2.48867C31.1266 2.47331 31.1216 2.45488 31.1093 2.44071C31.0677 2.39301 31.0163 2.35277 30.9563 2.32343L29.0671 1.42169C28.822 1.3086 28.5387 1.40467 28.4237 1.64728L27.5938 3.39835L30.3497 4.71659Z" fill="#FFA500"/>
<path d="M19.7607 6.7013H24.059L18.4844 1.12671V5.43108C18.4844 6.13156 19.0572 6.7013 19.7607 6.7013Z" fill="#FFA500"/>
<path d="M16.8557 14.6617C16.8259 14.6544 16.7955 14.6501 16.7657 14.6501C16.6916 14.6501 16.6192 14.6733 16.5578 14.7176L5.91815 22.4204C5.72723 22.5596 5.77344 22.7579 5.79229 22.8156C5.81053 22.8722 5.88897 23.0576 6.12428 23.0576H20.4371C20.5606 23.0576 20.6682 22.9987 20.7326 22.8953C20.7983 22.7919 20.8044 22.6679 20.7509 22.556L17.0837 14.8514C17.0229 14.7219 16.9153 14.6775 16.8557 14.6617Z" fill="#FFA500"/>
<path d="M21.7469 19.2905C21.7804 19.3063 21.9026 19.3525 22.0205 19.2546L22.4802 18.8673C22.3726 18.7414 22.2376 18.6381 22.0807 18.5633C21.9311 18.4915 21.7706 18.452 21.6077 18.4453L21.6016 19.057C21.5998 19.2048 21.7025 19.2692 21.7469 19.2905Z" fill="#FFA500"/>
<path d="M4.08949 28.3132H22.1832C23.4607 28.3132 24.4998 27.274 24.4998 25.9965V17.9927L22.4209 19.7312C22.258 19.868 22.0591 19.9386 21.8579 19.9386C21.7302 19.9386 21.6019 19.9106 21.4803 19.8534C21.1671 19.7051 20.975 19.3974 20.9786 19.0502L21.0078 15.8817C21.0086 15.818 21.0337 15.7608 21.0692 15.7099L24.4998 8.47159V7.32398H19.7613C18.7143 7.32398 17.8624 6.47514 17.8624 5.43112V0.686523H4.08949C2.81259 0.686523 1.77344 1.72568 1.77344 3.00258V25.9965C1.77344 27.274 2.81259 28.3132 4.08949 28.3132ZM5.64169 25.8964C5.49842 26.0817 5.27055 26.1744 4.95809 26.1744H3.95458V23.8005H4.97428C5.25223 23.8005 5.44993 23.8834 5.56735 24.0493C5.63637 24.1474 5.6708 24.2605 5.6708 24.3887C5.6708 24.5384 5.62824 24.6613 5.54318 24.7571C5.49895 24.8078 5.43541 24.8541 5.35241 24.8961C5.47417 24.9424 5.56523 24.9947 5.62558 25.0529C5.73221 25.1563 5.78549 25.2991 5.78549 25.4811C5.78549 25.6341 5.73761 25.7725 5.64169 25.8964ZM22.161 24.0264C22.3268 24.1848 22.419 24.3647 22.4374 24.5662H22.1237C22.0882 24.4132 22.0174 24.292 21.9112 24.2026C21.8051 24.1131 21.6562 24.0685 21.4645 24.0685C21.2307 24.0685 21.0419 24.1506 20.8981 24.3149C20.7542 24.4792 20.6823 24.731 20.6823 25.0704C20.6823 25.3484 20.7472 25.5738 20.877 25.7467C21.0068 25.9196 21.2005 26.0061 21.4579 26.0061C21.695 26.0061 21.8755 25.915 21.9994 25.7329C22.0651 25.6371 22.1141 25.511 22.1464 25.3548H22.4599C22.4319 25.6048 22.3393 25.8143 22.182 25.9834C21.9935 26.187 21.7392 26.2889 21.4192 26.2889C21.1434 26.2889 20.9118 26.2054 20.7243 26.0384C20.4776 25.8175 20.3543 25.4765 20.3543 25.0154C20.3543 24.6653 20.4469 24.3782 20.6322 24.1541C20.8326 23.9106 21.1089 23.7889 21.4612 23.7889C21.7618 23.7889 21.995 23.8681 22.161 24.0264ZM19.3363 9.73307H21.9479C22.1199 9.73307 22.2592 9.87231 22.2592 10.0444C22.2592 10.2165 22.1199 10.3557 21.9479 10.3557H19.3363C19.1642 10.3557 19.025 10.2165 19.025 10.0444C19.025 9.87231 19.1642 9.73307 19.3363 9.73307ZM21.3106 22.2874C21.4566 22.5909 21.4371 22.9429 21.2583 23.2269C21.0802 23.5108 20.7725 23.6805 20.4357 23.6805H6.12281C5.69413 23.6805 5.33174 23.4166 5.19857 23.0086C5.0648 22.5982 5.20344 22.1701 5.55124 21.9165L16.1921 14.2126C16.4298 14.0411 16.7296 13.9864 17.0111 14.0593C17.2914 14.1323 17.5225 14.3244 17.6453 14.5859L21.3106 22.2874ZM15.8718 13.7959L16.7655 11.422H17.1291L17.9904 13.7959H17.6382L17.3974 13.0849H16.4584L16.2015 13.7959H15.8718ZM17.9907 9.73307C18.1628 9.73307 18.302 9.87231 18.302 10.0444C18.302 10.2165 18.1628 10.3557 17.9907 10.3557H9.66955C9.49747 10.3557 9.35823 10.2165 9.35823 10.0444C9.35823 9.87231 9.49747 9.73307 9.66955 9.73307H17.9907ZM11.943 5.47977H7.7694C7.59732 5.47977 7.45808 5.34053 7.45808 5.16845C7.45808 4.99637 7.59732 4.85713 7.7694 4.85713H11.943C12.1151 4.85713 12.2544 4.99637 12.2544 5.16845C12.2544 5.34053 12.1151 5.47977 11.943 5.47977ZM13.1379 7.2954H15.5232C15.6953 7.2954 15.8346 7.43464 15.8346 7.60672C15.8346 7.7788 15.6953 7.91804 15.5232 7.91804H13.1379C12.9658 7.91804 12.8265 7.7788 12.8265 7.60672C12.8265 7.43464 12.9658 7.2954 13.1379 7.2954ZM9.85622 2.41885H11.943C12.1151 2.41885 12.2544 2.5581 12.2544 2.73017C12.2544 2.90225 12.1151 3.04149 11.943 3.04149H9.85622C9.68415 3.04149 9.5449 2.90225 9.5449 2.73017C9.5449 2.5581 9.68415 2.41885 9.85622 2.41885ZM3.81587 2.41885H8.4492C8.62128 2.41885 8.76052 2.5581 8.76052 2.73017C8.76052 2.90225 8.62128 3.04149 8.4492 3.04149H3.81587C3.64379 3.04149 3.50455 2.90225 3.50455 2.73017C3.50455 2.5581 3.64379 2.41885 3.81587 2.41885ZM3.81587 4.85713H6.57337C6.74545 4.85713 6.88469 4.99637 6.88469 5.16845C6.88469 5.34053 6.74545 5.47977 6.57337 5.47977H3.81587C3.64379 5.47977 3.50455 5.34053 3.50455 5.16845C3.50455 4.99637 3.64379 4.85713 3.81587 4.85713ZM3.81587 7.2954H11.7223C11.8944 7.2954 12.0336 7.43464 12.0336 7.60672C12.0336 7.7788 11.8944 7.91804 11.7223 7.91804H3.81587C3.64379 7.91804 3.50455 7.7788 3.50455 7.60672C3.50455 7.43464 3.64379 7.2954 3.81587 7.2954ZM3.81587 9.73307H8.63283C8.80491 9.73307 8.94415 9.87231 8.94415 10.0444C8.94415 10.2165 8.80491 10.3557 8.63283 10.3557H3.81587C3.64379 10.3557 3.50455 10.2165 3.50455 10.0444C3.50455 9.87231 3.64379 9.73307 3.81587 9.73307Z" fill="#FFA500"/>
<path d="M5.17127 24.7476C5.28976 24.6883 5.34904 24.5817 5.34904 24.4276C5.34904 24.2725 5.28596 24.168 5.15994 24.1141C5.08888 24.0839 4.9833 24.0688 4.84322 24.0688H4.26953V24.8041H4.85455C4.9903 24.8041 5.09587 24.7853 5.17127 24.7476Z" fill="#FFA500"/>
<path d="M16.9338 11.7742L16.5508 12.823H17.2941L16.9338 11.7742Z" fill="#FFA500"/>
<path d="M5.23268 25.1141C5.15082 25.0806 5.04259 25.064 4.90791 25.064H4.26953V25.8994H4.96278C5.15994 25.8994 5.30055 25.8423 5.38462 25.7281C5.43736 25.6559 5.46381 25.5687 5.46381 25.4663C5.46381 25.294 5.38674 25.1765 5.23268 25.1141Z" fill="#FFA500"/>
<path d="M25.122 17.2144V25.9965C25.122 26.9405 24.6666 27.7729 23.9727 28.3111C25.2396 28.2994 26.2676 27.2668 26.2676 25.9965V14.7986L25.122 17.2144Z" fill="#FFA500"/>
<path d="M19.3386 0.686523H18.9258L25.0318 6.79254C25.071 6.83173 25.0934 6.88159 25.1074 6.93422C25.1108 6.94722 25.1131 6.95858 25.115 6.97192C25.1168 6.98575 25.123 6.99852 25.123 7.01266V7.15787L25.4968 6.36919L20.1455 1.01852C19.9272 0.805093 19.6402 0.686523 19.3386 0.686523Z" fill="#FFA500"/>
<path d="M29.5309 6.45953L28.416 5.92627L23.4062 16.5288L24.5084 17.0504L26.2961 13.2797L29.5309 6.45953Z" fill="#FFA500"/>
</svg>
