<svg width="32" height="29" viewBox="0 0 32 29" fill="none" xmlns="http://www.w3.org/2000/svg">
<path d="M17.8161 18.9847L14.0961 22.2147L10.3761 18.9847C10.2461 18.8747 10.0561 18.8697 9.92109 18.9697L9.18109 19.5397C9.05609 19.6347 9.01109 19.8047 9.06609 19.9497L10.4611 23.5847C10.5361 23.7797 10.7661 23.8697 10.9561 23.7747L12.3861 23.0597L13.1911 25.1497H15.0011L15.8061 23.0597L17.2361 23.7747C17.4261 23.8697 17.6561 23.7797 17.7311 23.5847L19.1261 19.9497C19.1811 19.7997 19.1361 19.6347 19.0111 19.5397L18.2711 18.9697C18.1361 18.8647 17.9461 18.8697 17.8161 18.9847Z" fill="white"/>
<path d="M27.5365 16.675L17.0915 27.12C16.7715 27.44 16.9965 27.99 17.4515 27.99H27.8965C28.1765 27.99 28.4065 27.76 28.4065 27.48V17.035C28.4065 16.58 27.8565 16.35 27.5365 16.675ZM26.3615 25.43C26.3615 25.58 26.2415 25.7 26.0915 25.7H22.0565C21.8165 25.7 21.6965 25.41 21.8665 25.24L25.9015 21.205C26.0715 21.035 26.3615 21.155 26.3615 21.395V25.43Z" fill="white"/>
<path d="M20.1919 20.3501L20.0469 20.3301L18.6569 23.9501C18.4569 24.4701 17.9469 24.8201 17.3869 24.8201C17.1769 24.8201 16.9669 24.7701 16.7819 24.6751L16.3369 24.4551L16.0469 25.2051L16.3669 26.4251C16.3669 26.4251 16.3719 26.4151 16.3769 26.4101L21.8919 20.8951C21.3569 20.6201 20.7819 20.4301 20.1869 20.3501H20.1919Z" fill="white"/>
<path d="M11.3998 24.6751C11.2148 24.7701 11.0048 24.8201 10.7948 24.8201C10.2348 24.8201 9.72484 24.4701 9.52484 23.9501L8.13484 20.3301L7.98984 20.3501C7.27484 20.4501 6.58984 20.6951 5.96984 21.0651C4.49484 21.9551 3.58984 23.5551 3.58984 25.2801V27.3451C3.58984 27.7101 3.88484 28.0051 4.24984 28.0051H6.23984V25.3851C6.23984 25.1051 6.46484 24.8851 6.73984 24.8851C7.01484 24.8851 7.23984 25.1051 7.23984 25.3851V28.0051H11.4398C11.4398 27.9201 11.4498 27.8351 11.4698 27.7501L12.1398 25.2151L11.8498 24.4601L11.4048 24.6851L11.3998 24.6751Z" fill="white"/>
<path d="M6.50313 9.49966H7.59312C6.76312 9.49966 6.09312 10.1697 6.09312 10.9997C6.09312 11.4147 6.26312 11.7897 6.53312 12.0597C6.80312 12.3297 7.17812 12.4997 7.59312 12.4997H7.59812C7.66313 14.8547 8.93813 16.9297 10.7981 18.0697C10.8231 18.0847 10.8481 18.0997 10.8781 18.1147C10.9481 18.1597 11.0181 18.1997 11.0931 18.2347V18.2847L14.0931 20.8897L17.0931 18.2847V18.2697C17.0931 18.2697 17.1281 18.2497 17.1481 18.2397C17.1531 18.2397 17.1531 18.2347 17.1581 18.2297C17.3081 18.1547 17.4581 18.0647 17.6031 17.9697C17.9731 17.7347 18.3181 17.4547 18.6431 17.1397C19.8981 15.9047 20.5931 14.2597 20.5931 12.4997C21.0081 12.4997 21.3831 12.3297 21.6531 12.0597C21.9231 11.7897 22.0931 11.4147 22.0931 10.9997C22.0931 10.1697 21.4231 9.49966 20.5931 9.49966C19.7631 9.49966 21.6831 9.49966 21.6831 9.49966C22.3331 9.49966 22.8581 8.97466 22.8581 8.32466C22.8581 7.67466 22.3331 7.14966 21.6831 7.14966H6.50313C5.85313 7.14966 5.32812 7.67466 5.32812 8.32466C5.32812 8.97466 5.85313 9.49966 6.50313 9.49966ZM19.5931 9.49966V12.4997C19.5931 13.9897 19.0081 15.3797 17.9431 16.4247C16.8831 17.4647 15.4581 18.0297 13.9881 17.9997C11.0131 17.9447 8.59313 15.3897 8.59313 12.2997V9.49966H19.5931Z" fill="white"/>
<path d="M16.9844 1.5752V6.1502H20.7944C20.2744 4.1152 18.8544 2.4402 16.9844 1.5752Z" fill="white"/>
<path d="M11.2006 1.5752C9.33062 2.4402 7.91062 4.1152 7.39062 6.1502H11.2006V1.5752Z" fill="white"/>
<path d="M15.9931 1.31C15.9931 0.585 15.4081 0 14.6831 0H13.5131C12.7881 0 12.2031 0.585 12.2031 1.31V6.15H15.9931V1.31Z" fill="white"/>
<path d="M14.9947 26.1606H13.1847C13.0947 26.1606 13.0097 26.1456 12.9247 26.1206L12.4297 28.0006H15.7497L15.2547 26.1206C15.1697 26.1456 15.0847 26.1606 14.9947 26.1606Z" fill="white"/>
</svg>
