<svg width="30" height="29" viewBox="0 0 30 29" fill="none" xmlns="http://www.w3.org/2000/svg">
<path d="M3.39844 17.4H6.78225V19.3334H3.39844V17.4Z" fill="#FFA500"/>
<path d="M2.43151 21.2667H12.1625L8.44756 16.6605C8.30102 16.4771 8.22528 16.2471 8.23415 16.0126C8.24303 15.778 8.33592 15.5544 8.49589 15.3826L12.1823 11.427C12.2733 11.3294 12.3834 11.2516 12.5056 11.1982C12.6279 11.1449 12.7598 11.1171 12.8933 11.1167H21.7648V1.93334C21.7648 1.67697 21.663 1.43109 21.4817 1.2498C21.3004 1.06852 21.0546 0.966675 20.7982 0.966675H16.4482V8.16834C16.4476 8.43894 16.3737 8.70433 16.2344 8.93633C16.0952 9.16833 15.8957 9.35828 15.6571 9.486C15.4185 9.61373 15.1498 9.67447 14.8795 9.66178C14.6092 9.64908 14.3474 9.56342 14.1219 9.41389L11.6148 7.74301L9.10779 9.41389C8.88226 9.56342 8.62044 9.64908 8.35014 9.66178C8.07984 9.67447 7.81115 9.61373 7.57259 9.486C7.33404 9.35828 7.13452 9.16833 6.99524 8.93633C6.85595 8.70433 6.7821 8.43894 6.78151 8.16834V0.966675H2.43151C2.17513 0.966675 1.92926 1.06852 1.74797 1.2498C1.56669 1.43109 1.46484 1.67697 1.46484 1.93334V20.3C1.46484 20.5564 1.56669 20.8023 1.74797 20.9835C1.92926 21.1648 2.17513 21.2667 2.43151 21.2667ZM2.43151 17.4C2.43151 17.1436 2.53336 16.8978 2.71464 16.7165C2.89593 16.5352 3.1418 16.4333 3.39818 16.4333H6.78151C7.03789 16.4333 7.28376 16.5352 7.46505 16.7165C7.64633 16.8978 7.74818 17.1436 7.74818 17.4V19.3333C7.74818 19.5897 7.64633 19.8356 7.46505 20.0169C7.28376 20.1982 7.03789 20.3 6.78151 20.3H3.39818C3.1418 20.3 2.89593 20.1982 2.71464 20.0169C2.53336 19.8356 2.43151 19.5897 2.43151 19.3333V17.4Z" fill="#FFA500"/>
<path d="M22.2108 15.1119L24.1383 12.0834H19.8555L22.2108 15.1119Z" fill="#FFA500"/>
<path d="M16.4727 15.4666H21.2625L18.8676 12.3873L16.4727 15.4666Z" fill="#FFA500"/>
<path d="M15.5213 15.1119L17.8766 12.0834H13.5938L15.5213 15.1119Z" fill="#FFA500"/>
<path d="M27.9845 15.4667L25.1028 12.3656L23.1289 15.4667H27.9845Z" fill="#FFA500"/>
<path d="M9.73828 15.4667H14.6021L12.6291 12.3676L9.73828 15.4667Z" fill="#FFA500"/>
<path d="M8.02987 8.63573C8.11425 8.68145 8.20953 8.70319 8.30539 8.69859C8.40125 8.69399 8.49401 8.66322 8.57362 8.60962L11.3484 6.75942C11.4279 6.70643 11.5212 6.67815 11.6167 6.67815C11.7122 6.67815 11.8055 6.70643 11.8849 6.75942L14.6617 8.60962C14.7416 8.66165 14.8341 8.69121 14.9293 8.69522C15.0246 8.69923 15.1192 8.67754 15.2033 8.63242C15.2873 8.58729 15.3576 8.5204 15.4069 8.43876C15.4562 8.35711 15.4826 8.26371 15.4834 8.16834V0.966675H7.75002V8.16834C7.74917 8.26445 7.77484 8.35893 7.82421 8.44139C7.87359 8.52385 7.94475 8.5911 8.02987 8.63573Z" fill="#FFA500"/>
<path d="M22.6302 16.4333L20.2305 26.3344L28.2248 16.4333H22.6302Z" fill="#FFA500"/>
<path d="M17.5085 26.3494L15.1054 16.4333H9.51953L17.5085 26.3494Z" fill="#FFA500"/>
<path d="M16.0977 16.4333L18.8667 27.8579L21.6357 16.4333H16.0977Z" fill="#FFA500"/>
</svg>
