<svg width="26" height="26" viewBox="0 0 26 26" fill="none" xmlns="http://www.w3.org/2000/svg">
<path fill-rule="evenodd" clip-rule="evenodd" d="M3.02749 21.068L7.95975 22.3898L9.0535 18.302C9.10627 18.1206 9.12088 17.9302 9.09641 17.7429C9.07193 17.5556 9.00891 17.3754 8.91132 17.2137L5.97514 12.1277C5.58741 11.4567 4.56093 11.571 4.35421 12.341C4.32361 12.4531 4.31549 12.5702 4.33032 12.6854C4.34515 12.8007 4.38263 12.9119 4.44061 13.0126L5.3703 14.6253C5.39368 14.666 5.40881 14.7109 5.41484 14.7574C5.42087 14.804 5.41767 14.8512 5.40543 14.8965C5.39319 14.9418 5.37215 14.9843 5.34351 15.0214C5.31487 15.0586 5.27919 15.0897 5.2385 15.1131C5.19782 15.1365 5.15293 15.1516 5.1064 15.1577C5.05986 15.1637 5.0126 15.1605 4.9673 15.1483C4.922 15.136 4.87956 15.115 4.84239 15.0863C4.80523 15.0577 4.77407 15.022 4.75069 14.9813L3.821 13.3708L3.16475 12.2284C3.06176 12.0542 2.99501 11.8609 2.96851 11.6603C2.94201 11.4597 2.9563 11.2558 3.01054 11.0608L4.53522 5.37C4.60019 5.1268 4.56596 4.86775 4.44007 4.64977C4.01514 3.91367 2.91702 4.06789 2.69991 4.87781L0.502567 13.0809C0.385683 13.4897 0.353914 13.918 0.409225 14.3396C0.464535 14.7611 0.605749 15.1667 0.824129 15.5315L3.26921 19.7659C3.29262 19.8065 3.30782 19.8513 3.31392 19.8978C3.32002 19.9442 3.3169 19.9914 3.30475 20.0366L3.03132 21.0675L3.02749 21.068ZM8.39069 25.5333C8.38403 25.5692 8.36963 25.6033 8.34847 25.6332C8.32732 25.663 8.29992 25.6879 8.26819 25.7061C8.23644 25.7245 8.2011 25.7358 8.16458 25.7393C8.12806 25.7428 8.09121 25.7384 8.05655 25.7263L1.2753 23.9096C1.26491 23.9063 1.25397 23.903 1.24358 23.9009C1.18504 23.8809 1.13578 23.8403 1.10506 23.7867C1.07435 23.733 1.06429 23.6699 1.07679 23.6094L1.59085 21.6893C1.6076 21.6247 1.64919 21.5694 1.70656 21.5354C1.76393 21.5014 1.83242 21.4915 1.8971 21.5077L8.71772 23.3359C8.78258 23.3535 8.83783 23.396 8.87136 23.4543C8.90488 23.5125 8.91394 23.5817 8.89655 23.6466L8.39069 25.5344V25.5333ZM17.1002 23.6455L17.6148 25.565C17.6343 25.6246 17.6751 25.6749 17.7294 25.7062C17.7837 25.7375 17.8477 25.7476 17.909 25.7345L17.9402 25.7263L24.7215 23.9096C24.8894 23.8598 24.9555 23.7455 24.9151 23.5755L24.4087 21.6866C24.4001 21.6544 24.3853 21.6243 24.365 21.5979C24.3448 21.5715 24.3196 21.5494 24.2908 21.5328C24.2619 21.5162 24.2301 21.5054 24.1972 21.5011C24.1642 21.4968 24.1307 21.4991 24.0986 21.5077L17.2796 23.3359C17.2147 23.3535 17.1595 23.396 17.126 23.4543C17.0924 23.5125 17.0834 23.5817 17.1008 23.6466L17.1002 23.6455ZM18.037 22.3877L16.9433 18.2998C16.8906 18.1183 16.8761 17.928 16.9006 17.7407C16.9252 17.5534 16.9883 17.3732 17.086 17.2115L20.0216 12.1255C20.1377 11.927 20.3259 11.781 20.547 11.7179C20.7681 11.6549 21.005 11.6796 21.2083 11.787H21.2122C21.3154 11.8441 21.4064 11.9211 21.4797 12.0136C21.5529 12.1061 21.6072 12.2122 21.6392 12.3258C21.6711 12.4394 21.6803 12.5582 21.666 12.6753C21.6518 12.7925 21.6144 12.9056 21.5562 13.0082L20.6265 14.6215C20.5793 14.7036 20.5666 14.8012 20.5913 14.8927C20.6161 14.9842 20.6761 15.0621 20.7583 15.1093C20.8404 15.1565 20.938 15.1691 21.0295 15.1444C21.121 15.1197 21.1989 15.0597 21.2461 14.9775L22.8358 12.2245C22.9388 12.0503 23.0056 11.8571 23.0321 11.6565C23.0586 11.4558 23.0443 11.2519 22.9901 11.057L21.4654 5.36945C21.4331 5.24895 21.4249 5.12327 21.4412 4.99959C21.4575 4.87591 21.4981 4.75666 21.5605 4.64867C21.9855 3.91258 23.0836 4.0668 23.3007 4.87672L25.498 13.0798C25.6149 13.4886 25.6467 13.917 25.5914 14.3385C25.5361 14.76 25.3949 15.1656 25.1765 15.5304L22.733 19.7665C22.7096 19.8071 22.6944 19.8519 22.6883 19.8983C22.6822 19.9447 22.6853 19.9919 22.6975 20.0372L22.9737 21.068L18.0376 22.3898L18.037 22.3877ZM8.34694 11.9177C7.23022 10.2848 6.51929 8.41391 6.51929 6.5168V1.51562C8.81178 1.60586 11.0846 1.29961 12.9987 0.257812C14.9155 1.29688 17.1855 1.60477 19.478 1.51234V6.5157C19.478 10.4986 16.3608 14.3163 12.9987 16.1145C11.2323 15.1695 9.55335 13.6836 8.34694 11.9166V11.9177ZM10.3343 2.04664C11.201 1.87579 12.0445 1.60301 12.8472 1.23398C12.8946 1.21181 12.9463 1.20032 12.9987 1.20032C13.051 1.20032 13.1027 1.21181 13.1501 1.23398C13.9537 1.60322 14.7981 1.876 15.6658 2.04664C16.4385 2.2025 17.5295 2.32773 18.3192 2.32773C18.3664 2.32773 18.4131 2.33703 18.4566 2.35509C18.5002 2.37316 18.5398 2.39963 18.5731 2.433C18.6064 2.46637 18.6328 2.50599 18.6508 2.54958C18.6688 2.59316 18.678 2.63987 18.678 2.68703V6.51516C18.678 8.14539 18.0944 9.75539 17.1724 11.1866C16.147 12.7595 14.7887 14.088 13.1933 15.0781C13.1366 15.1151 13.0704 15.1352 13.0027 15.1361C12.9349 15.137 12.8683 15.1186 12.8105 15.083C9.97116 13.3456 7.31991 9.99711 7.31991 6.51898V2.69086C7.31989 2.59722 7.3566 2.50731 7.42214 2.44044C7.48768 2.37357 7.57684 2.33506 7.67046 2.3332C8.56391 2.31765 9.45424 2.22304 10.331 2.05047L10.3343 2.04664ZM12.9987 1.95312C14.554 2.6482 16.2597 2.9632 17.9577 3.0332V6.5168C17.9577 9.66953 15.5471 12.7173 12.9987 14.3524C10.4502 12.7173 8.0396 9.66953 8.0396 6.5168V3.0332C9.73764 2.9632 11.4433 2.65039 12.9987 1.95312ZM15.0041 6.17883L12.4337 8.74914C12.3664 8.81633 12.2751 8.85407 12.18 8.85407C12.0848 8.85407 11.9936 8.81633 11.9262 8.74914L10.9966 7.81672C10.8919 7.72713 10.7574 7.68031 10.6197 7.68563C10.4821 7.69094 10.3515 7.748 10.2541 7.8454C10.1567 7.94279 10.0997 8.07335 10.0944 8.21099C10.089 8.34862 10.1359 8.4832 10.2255 8.58781L11.7884 10.1508C11.8932 10.255 12.0349 10.3136 12.1827 10.3136C12.3305 10.3136 12.4723 10.255 12.577 10.1508L15.7784 6.94938C15.868 6.84476 15.9148 6.71018 15.9095 6.57255C15.9042 6.43491 15.8471 6.30435 15.7497 6.20696C15.6524 6.10956 15.5218 6.05251 15.3842 6.04719C15.2465 6.04187 15.1119 6.08869 15.0073 6.17828L15.0041 6.17883ZM12.1783 7.98844L14.4966 5.67188C15.2846 4.88438 16.6518 5.43617 16.6518 6.56492C16.6522 6.73076 16.6197 6.89504 16.5564 7.04831C16.493 7.20157 16.4 7.3408 16.2826 7.45797L13.0812 10.6594C12.8418 10.8985 12.5173 11.0328 12.1789 11.0328C11.8405 11.0328 11.516 10.8985 11.2766 10.6594L9.71741 9.09586C8.92936 8.30781 9.48171 6.94062 10.6105 6.94062C10.776 6.94096 10.9399 6.97398 11.0927 7.0378C11.2455 7.10161 11.3841 7.19497 11.5008 7.3125L12.1783 7.98844Z" fill="#FFA500"/>
</svg>
