<svg width="22" height="28" viewBox="0 0 22 28" fill="none" xmlns="http://www.w3.org/2000/svg">
<path d="M19.996 7.01284C19.8638 6.96979 19.7615 6.86331 19.7232 6.72935C19.5558 6.1391 19.3196 5.56856 19.0211 5.0333C18.9536 4.91192 18.9506 4.7642 19.0139 4.63976L19.932 2.83729L18.1127 1.01624L16.309 1.93602C16.184 1.9994 16.0363 1.9964 15.9143 1.92826C15.3766 1.62807 14.8067 1.3912 14.2194 1.22496C14.0848 1.18667 13.9784 1.08443 13.9354 0.951043L13.3105 -0.97168H10.737L10.1121 0.951043C10.069 1.08443 9.96254 1.18667 9.82802 1.22496C9.24433 1.39001 8.67379 1.62682 8.13259 1.92883C8.01059 1.9964 7.86287 1.9994 7.73849 1.93602L5.93539 1.01624L4.11558 2.83729L5.03475 4.63857C5.09875 4.76358 5.09637 4.9113 5.02818 5.0333C4.72736 5.57275 4.49054 6.14329 4.3243 6.72935C4.28601 6.86331 4.18378 6.96979 4.05158 7.01284L2.12648 7.63957V10.2112L4.05039 10.8361C4.18378 10.8792 4.28601 10.9857 4.3243 11.1202C4.48998 11.7062 4.72679 12.2774 5.02818 12.8169C5.09637 12.9395 5.09875 13.0871 5.03475 13.2116L4.11558 15.0135L5.93482 16.8327L7.73911 15.9141C7.86349 15.8514 8.01121 15.8543 8.13265 15.9219C8.6679 16.2203 9.23901 16.4572 9.82926 16.6258C9.96322 16.6641 10.0691 16.7669 10.1121 16.8991L10.7371 18.8224H13.3105L13.9354 16.8996C13.9785 16.7669 14.0843 16.664 14.2183 16.6257C14.811 16.4565 15.3827 16.2197 15.9167 15.9218C16.0381 15.8543 16.1858 15.8513 16.3103 15.9146L18.1128 16.8326L19.932 15.0134L19.014 13.2109C18.9506 13.087 18.9536 12.9394 19.0212 12.8179C19.3214 12.2761 19.5576 11.7056 19.7233 11.1219C19.7616 10.9873 19.8638 10.8814 19.996 10.8378L21.9218 10.2111V7.63951L19.996 7.01284ZM12.0247 16.0319C8.10507 16.0319 4.91625 12.8438 4.91625 8.92536C4.91625 5.00696 8.10507 1.81878 12.0247 1.81878C15.943 1.81878 19.1312 5.00696 19.1312 8.92536C19.1312 12.8438 15.9431 16.0319 12.0247 16.0319ZM12.0247 2.65666C8.56674 2.65666 5.75414 5.46864 5.75414 8.92536C5.75414 12.3821 8.56674 15.1941 12.0247 15.1941C15.4813 15.1941 18.2934 12.3821 18.2934 8.92536C18.2934 5.46864 15.4814 2.65666 12.0247 2.65666ZM16.5572 5.23483C16.6977 5.25279 16.8197 5.34126 16.8807 5.46927C17.285 6.31191 17.16 7.27893 16.5548 7.99244C15.9783 8.66884 15.0477 8.95289 14.1985 8.74117L13.5257 9.66634L15.4239 11.7433C15.4275 11.7469 15.4305 11.7505 15.4341 11.7547C15.6003 11.9503 15.6811 12.1997 15.6601 12.4569C15.6392 12.714 15.5208 12.9466 15.3252 13.1129L14.7852 13.574C14.6034 13.7271 14.381 13.8019 14.1603 13.8019C13.8864 13.8025 13.6148 13.6871 13.4247 13.464C13.4217 13.4598 13.4181 13.4562 13.4151 13.452L12.0402 11.7105L11.2227 12.8348C10.9649 13.1894 10.5959 13.3826 10.1898 13.3826C10.1222 13.3826 10.0534 13.3773 9.98349 13.3665C9.43028 13.2798 8.92137 12.8468 8.74612 12.3145C8.59246 11.8468 8.71021 11.3702 9.07028 11.006L10.4117 9.65025L9.50862 8.50736C9.43147 8.55879 9.33938 8.58269 9.24609 8.57493C9.19466 8.57074 9.14567 8.55697 9.10018 8.53545L9.10375 8.65088C9.10732 8.7777 9.05289 8.89908 8.95666 8.98161L8.24621 9.58681C8.17026 9.65138 8.07397 9.68667 7.97468 9.68667C7.96329 9.68667 7.95253 9.68605 7.9412 9.68548C7.83058 9.67653 7.72773 9.62386 7.65596 9.53895L6.28107 7.92186C6.20868 7.83696 6.17339 7.72747 6.18234 7.61685C6.19135 7.50623 6.24397 7.40337 6.32887 7.33161L7.04056 6.7264C7.13747 6.64388 7.26724 6.60978 7.39219 6.63431L7.50462 6.65645C7.49085 6.60803 7.48547 6.55716 7.48966 6.50636C7.49861 6.39574 7.55123 6.29344 7.63557 6.22111L9.29038 4.81393C9.30233 4.8038 9.31548 4.79417 9.32867 4.78522C10.1043 4.26673 10.9505 4.10281 11.844 4.29664C12.0013 4.33073 12.1245 4.45211 12.1622 4.60822C12.1999 4.76432 12.1449 4.92818 12.0205 5.02985L10.9745 5.88625C10.8961 5.95145 10.8615 5.98016 10.9697 6.14221L11.255 6.4777C11.3273 6.56203 11.3626 6.67209 11.3536 6.78271C11.3447 6.89332 11.2921 6.99562 11.2077 7.06795L11.1754 7.09548L12.0228 8.02246L12.6293 7.41006C12.2759 6.5997 12.4074 5.65239 12.9947 4.96465C13.5903 4.26254 14.5472 3.97667 15.4317 4.2362C15.5675 4.2763 15.6739 4.38273 15.7146 4.5185C15.7552 4.65426 15.7241 4.80136 15.632 4.9096L14.5023 6.23788L14.5837 6.70194L15.0555 6.70732L16.1847 5.37904C16.2762 5.27068 16.4167 5.21688 16.5572 5.23483ZM13.0228 10.3583L14.7996 12.3013C14.8253 12.3342 14.8271 12.3707 14.8253 12.3898C14.8241 12.409 14.8164 12.4467 14.7823 12.4754L14.2428 12.9353C14.1914 12.979 14.1112 12.9736 14.0658 12.9245L12.5515 11.0072L13.0228 10.3583ZM11.0056 9.05094L10.1492 7.96785L10.5368 7.63775L11.4333 8.61854L11.0056 9.05094ZM10.2898 6.74906L9.32873 7.56661L9.29939 7.53251C9.22763 7.44761 9.12477 7.39493 9.01415 7.38599C8.90228 7.37641 8.79291 7.41232 8.70795 7.48465L8.39637 7.75081C8.30008 7.83333 8.24565 7.95477 8.24927 8.08153L8.26066 8.47382L8.02203 8.67717L7.19015 7.69813L7.42934 7.49479L7.81331 7.56956C7.93831 7.59408 8.06746 7.56055 8.16437 7.47808L8.4777 7.21193C8.56266 7.14016 8.61528 7.03731 8.62423 6.92669C8.63318 6.81607 8.59789 6.70601 8.52619 6.62168L8.49747 6.58758L9.8138 5.46802C10.0662 5.30235 10.3227 5.18697 10.5871 5.12053L10.4417 5.23953C9.99918 5.6073 9.94294 6.12822 10.2916 6.63357C10.2994 6.64552 10.3084 6.65628 10.3173 6.66705L10.3461 6.70114L10.2976 6.74238L10.2898 6.74906ZM15.5663 7.39975L16.278 6.56249C16.2613 6.87945 16.1398 7.18746 15.9168 7.44999C15.5071 7.93081 14.7841 8.10424 14.1986 7.86205C14.0198 7.78791 13.814 7.84591 13.6998 8.00257L12.6448 9.45342L12.6436 9.45518L11.6838 10.7763L10.5451 12.3426C10.4291 12.5022 10.2879 12.5657 10.1133 12.5387C9.86987 12.5004 9.61867 12.2869 9.54153 12.0531C9.48653 11.8851 9.5272 11.7355 9.66591 11.595L11.2669 9.97729L12.2938 8.93969L12.3254 8.90741L13.4396 7.78247C13.5754 7.64489 13.5999 7.43203 13.4982 7.26755C13.1544 6.71134 13.2076 6.00446 13.6322 5.5075C13.8463 5.25573 14.1321 5.08706 14.4413 5.01648L13.7368 5.84479C13.6555 5.93989 13.6214 6.06609 13.6429 6.18928L13.8194 7.18922C13.8547 7.3878 14.0257 7.53308 14.2272 7.53546L15.2421 7.54684C15.3671 7.54928 15.4856 7.49422 15.5663 7.39975ZM0.078125 18.466H3.25017V26.2896H0.078125V18.466ZM19.0798 23.8293C19.0619 24.1086 18.9333 24.4955 18.4195 24.7502L12.7238 27.5742C11.6575 28.1029 10.5128 28.1041 9.41301 27.5784L4.08743 25.0308V19.6107H7.0268C7.45143 19.6107 7.80249 19.7375 8.1314 20.009L11.9589 23.1822C12.3034 23.4687 12.4547 23.9202 12.3524 24.361C12.3512 24.3657 12.35 24.3705 12.3494 24.3753C12.3087 24.5445 12.2268 24.7072 12.1144 24.8442C11.7059 25.3352 10.9446 25.4063 10.4524 24.9996L7.29771 22.382C7.12008 22.2343 6.85574 22.2588 6.70802 22.437C6.5603 22.6152 6.58483 22.879 6.76302 23.0267L9.9183 25.6443C10.2939 25.9547 10.7496 26.106 11.2029 26.106C11.7836 26.106 12.3607 25.8578 12.7602 25.377C12.9139 25.1892 13.0335 24.9751 13.1119 24.7484L17.3729 22.6368C17.8855 22.3826 18.2712 22.5141 18.5045 22.669C18.877 22.9166 19.1079 23.3831 19.0798 23.8293Z" fill="#FFA500"/>
</svg>
